<svg width="493" height="84" viewBox="0 0 493 84" fill="none" xmlns="http://www.w3.org/2000/svg">
<rect width="493" height="84" rx="14" fill="#057A55"/>
<path d="M21.455 36.68C21.455 34.79 21.945 33.3667 22.925 32.41C23.905 31.4533 25.0717 30.975 26.425 30.975C27.8017 30.975 29.6683 31.2083 32.025 31.675C34.3817 32.1417 36.155 32.3867 37.345 32.41C39.3283 32.0367 41.2183 31.5817 43.015 31.045C43.2017 31.6517 43.295 32.41 43.295 33.32C43.295 35.21 42.7467 36.6333 41.65 37.59C40.5767 38.5467 39.2 39.025 37.52 39.025C37.1 39.025 36.54 39.0017 35.84 38.955C34.5567 45.6983 33.915 49.4667 33.915 50.26C33.915 52.5233 34.265 54.215 34.965 55.335C33.565 56.385 32.1067 56.91 30.59 56.91C29.0733 56.91 27.9883 56.4783 27.335 55.615C26.6817 54.7283 26.355 53.4217 26.355 51.695C26.355 49.945 27.0317 45.3017 28.385 37.765C25.7483 38.115 23.5317 38.5117 21.735 38.955C21.5483 38.3717 21.455 37.6133 21.455 36.68ZM53.4004 56.875C50.2038 56.875 47.7304 56.0467 45.9804 54.39C44.2538 52.7333 43.3904 50.4933 43.3904 47.67C43.3904 43.9133 44.6738 40.8683 47.2404 38.535C49.8304 36.1783 53.0738 35 56.9704 35C59.1404 35 60.7854 35.49 61.9054 36.47C63.0254 37.4267 63.5854 38.6983 63.5854 40.285C63.5854 42.455 62.5238 44.2633 60.4004 45.71C58.3004 47.1333 55.0454 47.8567 50.6354 47.88C50.7054 49.3733 51.0438 50.5517 51.6504 51.415C52.2571 52.255 53.0154 52.675 53.9254 52.675C54.8354 52.675 55.6171 52.3717 56.2704 51.765C56.9471 51.1583 57.2854 50.1667 57.2854 48.79C60.6921 48.79 62.3954 49.595 62.3954 51.205C62.3954 52.5817 61.5554 53.8767 59.8754 55.09C58.1954 56.28 56.0371 56.875 53.4004 56.875ZM56.3754 39.095C55.1854 39.095 54.0888 39.69 53.0854 40.88C52.1054 42.07 51.3938 43.47 50.9504 45.08C53.2838 44.8933 55.0338 44.3683 56.2004 43.505C57.3904 42.6183 57.9854 41.685 57.9854 40.705C57.9854 40.2383 57.8338 39.8533 57.5304 39.55C57.2504 39.2467 56.8654 39.095 56.3754 39.095ZM77.9084 39.655C77.045 39.9117 76.3567 40.285 75.8434 40.775C75.33 41.2417 74.875 41.9183 74.4784 42.805C78.4217 43.3883 81.1984 44.2283 82.8084 45.325C84.4184 46.4217 85.2234 47.985 85.2234 50.015C85.2234 51.2983 84.8617 52.4183 84.1384 53.375C83.415 54.3083 82.505 55.02 81.4084 55.51C79.2617 56.42 77.15 56.875 75.0734 56.875C69.17 56.875 66.2184 55.6033 66.2184 53.06C66.2184 51.7767 66.79 50.4933 67.9334 49.21C68.5167 50.0267 69.3917 50.7267 70.5584 51.31C71.7484 51.8933 72.9034 52.185 74.0234 52.185C75.96 52.185 77.1267 51.3333 77.5234 49.63C73.9767 49.21 71.41 48.4167 69.8234 47.25C68.2367 46.0833 67.4434 44.4383 67.4434 42.315C67.4434 40.635 67.9917 39.2233 69.0884 38.08C70.2084 36.9367 71.585 36.1433 73.2184 35.7C74.875 35.2333 76.73 35 78.7834 35C80.86 35 82.5634 35.3967 83.8934 36.19C85.2467 36.96 85.9234 37.905 85.9234 39.025C85.9234 40.145 85.5267 41.0083 84.7334 41.615C83.9634 42.2217 83.1117 42.525 82.1784 42.525C81.2684 42.525 80.4284 42.28 79.6584 41.79C78.9117 41.3 78.3284 40.5883 77.9084 39.655ZM89.6536 43.365C89.4903 42.7117 89.4086 42.105 89.4086 41.545C89.4086 40.4017 89.7469 39.5383 90.4236 38.955C91.1003 38.3717 91.9753 38.08 93.0486 38.08C93.0486 36.8667 92.7336 35.5483 92.1036 34.125C93.2469 33.285 94.2853 32.655 95.2186 32.235C96.1753 31.7917 97.1786 31.57 98.2286 31.57C99.2786 31.57 100.002 31.7683 100.399 32.165C100.819 32.5383 101.029 33.1217 101.029 33.915C101.029 34.7083 100.865 35.945 100.539 37.625C101.472 37.485 102.417 37.2867 103.374 37.03C103.537 37.52 103.619 38.15 103.619 38.92C103.619 39.69 103.315 40.4133 102.709 41.09C102.125 41.7433 101.262 42.07 100.119 42.07H99.5936C98.7536 45.8733 98.3336 48.8017 98.3336 50.855C98.3336 52.9083 98.6953 54.3433 99.4186 55.16C98.1119 56.3033 96.7236 56.875 95.2536 56.875C93.7836 56.875 92.7219 56.4433 92.0686 55.58C91.4386 54.6933 91.1236 53.3283 91.1236 51.485C91.1236 50.365 91.5319 47.425 92.3486 42.665C91.4153 42.8283 90.5169 43.0617 89.6536 43.365ZM115.539 56.875C112.342 56.875 109.869 56.0467 108.119 54.39C106.392 52.7333 105.529 50.4933 105.529 47.67C105.529 43.9133 106.812 40.8683 109.379 38.535C111.969 36.1783 115.212 35 119.109 35C121.279 35 122.924 35.49 124.044 36.47C125.164 37.4267 125.724 38.6983 125.724 40.285C125.724 42.455 124.662 44.2633 122.539 45.71C120.439 47.1333 117.184 47.8567 112.774 47.88C112.844 49.3733 113.182 50.5517 113.789 51.415C114.396 52.255 115.154 52.675 116.064 52.675C116.974 52.675 117.756 52.3717 118.409 51.765C119.086 51.1583 119.424 50.1667 119.424 48.79C122.831 48.79 124.534 49.595 124.534 51.205C124.534 52.5817 123.694 53.8767 122.014 55.09C120.334 56.28 118.176 56.875 115.539 56.875ZM118.514 39.095C117.324 39.095 116.227 39.69 115.224 40.88C114.244 42.07 113.532 43.47 113.089 45.08C115.422 44.8933 117.172 44.3683 118.339 43.505C119.529 42.6183 120.124 41.685 120.124 40.705C120.124 40.2383 119.972 39.8533 119.669 39.55C119.389 39.2467 119.004 39.095 118.514 39.095ZM131.087 49.595C129.617 49.595 128.882 48.7433 128.882 47.04C128.882 45.8033 129.209 44.4733 129.862 43.05C130.352 43.2133 131.064 43.295 131.997 43.295C132.954 43.295 134.47 42.9217 136.547 42.175C138.647 41.4283 140.234 41.055 141.307 41.055C142.777 41.055 143.512 41.9067 143.512 43.61C143.512 44.8467 143.185 46.1767 142.532 47.6C142.042 47.4367 141.319 47.355 140.362 47.355C139.429 47.355 137.912 47.7283 135.812 48.475C133.735 49.2217 132.16 49.595 131.087 49.595ZM156.018 38.885C152.728 38.885 150.325 38.5233 148.808 37.8C147.315 37.0767 146.568 35.7233 146.568 33.74C146.568 33.04 146.685 32.0483 146.918 30.765C148.528 31.4417 150.442 31.99 152.658 32.41C154.875 32.8067 156.613 33.005 157.873 33.005C158.76 31.4417 159.985 30.66 161.548 30.66C162.575 30.66 163.368 30.9867 163.928 31.64C164.512 32.27 164.803 33.0867 164.803 34.09C164.803 35.07 164.418 35.9917 163.648 36.855L162.423 46.9C162.213 48.6967 161.747 50.3067 161.023 51.73C160.323 53.1533 159.483 54.2733 158.503 55.09C156.52 56.7467 154.478 57.575 152.378 57.575C150.278 57.575 148.598 57.1083 147.338 56.175C146.078 55.265 145.448 54.1567 145.448 52.85C145.448 51.52 145.833 50.4817 146.603 49.735C147.373 48.965 148.272 48.58 149.298 48.58C150.348 48.58 151.317 48.9417 152.203 49.665C153.09 50.3883 153.767 51.4733 154.233 52.92L155.108 52.22C154.478 50.47 154.163 49.07 154.163 48.02C154.163 47.4367 154.385 46.095 154.828 43.995C155.272 41.895 155.668 40.1917 156.018 38.885ZM176.379 56.875C173.182 56.875 170.709 56.0467 168.959 54.39C167.232 52.7333 166.369 50.4933 166.369 47.67C166.369 43.9133 167.652 40.8683 170.219 38.535C172.809 36.1783 176.052 35 179.949 35C182.119 35 183.764 35.49 184.884 36.47C186.004 37.4267 186.564 38.6983 186.564 40.285C186.564 42.455 185.502 44.2633 183.379 45.71C181.279 47.1333 178.024 47.8567 173.614 47.88C173.684 49.3733 174.022 50.5517 174.629 51.415C175.236 52.255 175.994 52.675 176.904 52.675C177.814 52.675 178.596 52.3717 179.249 51.765C179.926 51.1583 180.264 50.1667 180.264 48.79C183.671 48.79 185.374 49.595 185.374 51.205C185.374 52.5817 184.534 53.8767 182.854 55.09C181.174 56.28 179.016 56.875 176.379 56.875ZM179.354 39.095C178.164 39.095 177.067 39.69 176.064 40.88C175.084 42.07 174.372 43.47 173.929 45.08C176.262 44.8933 178.012 44.3683 179.179 43.505C180.369 42.6183 180.964 41.685 180.964 40.705C180.964 40.2383 180.812 39.8533 180.509 39.55C180.229 39.2467 179.844 39.095 179.354 39.095ZM190.142 43.365C189.979 42.7117 189.897 42.105 189.897 41.545C189.897 40.4017 190.235 39.5383 190.912 38.955C191.589 38.3717 192.464 38.08 193.537 38.08C193.537 36.8667 193.222 35.5483 192.592 34.125C193.735 33.285 194.774 32.655 195.707 32.235C196.664 31.7917 197.667 31.57 198.717 31.57C199.767 31.57 200.49 31.7683 200.887 32.165C201.307 32.5383 201.517 33.1217 201.517 33.915C201.517 34.7083 201.354 35.945 201.027 37.625C201.96 37.485 202.905 37.2867 203.862 37.03C204.025 37.52 204.107 38.15 204.107 38.92C204.107 39.69 203.804 40.4133 203.197 41.09C202.614 41.7433 201.75 42.07 200.607 42.07H200.082C199.242 45.8733 198.822 48.8017 198.822 50.855C198.822 52.9083 199.184 54.3433 199.907 55.16C198.6 56.3033 197.212 56.875 195.742 56.875C194.272 56.875 193.21 56.4433 192.557 55.58C191.927 54.6933 191.612 53.3283 191.612 51.485C191.612 50.365 192.02 47.425 192.837 42.665C191.904 42.8283 191.005 43.0617 190.142 43.365ZM218.932 30.625C222.012 30.625 224.322 30.9867 225.862 31.71C227.402 32.41 228.172 33.5417 228.172 35.105C228.172 36.645 227.694 37.8233 226.737 38.64C225.804 39.4333 224.731 39.83 223.517 39.83C222.304 39.83 221.207 39.5267 220.227 38.92C219.271 38.29 218.606 37.4617 218.232 36.435C217.369 36.435 216.541 36.7267 215.747 37.31C214.977 37.87 214.487 38.605 214.277 39.515C218.897 40.635 222.211 41.9417 224.217 43.435C226.224 44.9283 227.227 46.8417 227.227 49.175C227.227 51.5083 226.166 53.375 224.042 54.775C221.942 56.175 219.096 56.875 215.502 56.875C211.932 56.875 209.401 56.385 207.907 55.405C206.414 54.425 205.667 53.13 205.667 51.52C205.667 49.91 206.169 48.4283 207.172 47.075C207.662 48.125 208.596 49.07 209.972 49.91C211.372 50.75 212.749 51.17 214.102 51.17C216.599 51.17 218.186 50.3767 218.862 48.79C214.989 48.2767 212.037 47.2033 210.007 45.57C207.977 43.9133 206.962 41.9183 206.962 39.585C206.962 38.0217 207.382 36.6333 208.222 35.42C209.062 34.1833 210.136 33.2383 211.442 32.585C214.009 31.2783 216.506 30.625 218.932 30.625ZM247.369 37.66C248.676 37.66 249.796 38.185 250.729 39.235C251.686 40.285 252.164 41.8133 252.164 43.82C252.164 45.8033 251.814 47.6467 251.114 49.35C250.414 51.03 249.492 52.4067 248.349 53.48C247.206 54.5533 245.911 55.3933 244.464 56C243.017 56.5833 241.536 56.875 240.019 56.875C236.962 56.875 234.547 56.035 232.774 54.355C231.001 52.675 230.114 50.4467 230.114 47.67C230.114 43.9133 231.316 40.8683 233.719 38.535C236.146 36.1783 239.226 35 242.959 35C243.799 35 244.639 35.0933 245.479 35.28C245.736 36.05 245.876 36.925 245.899 37.905C246.389 37.7417 246.879 37.66 247.369 37.66ZM243.064 42.525C243.064 41.8717 243.216 41.1367 243.519 40.32C243.846 39.5033 244.359 38.85 245.059 38.36C241.979 39.0133 239.856 40.2617 238.689 42.105C237.686 43.6917 237.184 45.325 237.184 47.005C237.184 48.685 237.522 50.0383 238.199 51.065C238.899 52.0683 239.786 52.57 240.859 52.57C243.239 52.57 244.919 51.0183 245.899 47.915C244.009 46.7483 243.064 44.9517 243.064 42.525ZM258.774 34.23L256.814 31.43C259.73 29.7267 262.029 28.875 263.709 28.875C264.665 28.875 265.342 29.0733 265.739 29.47C266.135 29.8433 266.334 30.5667 266.334 31.64C266.334 32.69 265.809 35.6767 264.759 40.6C263.732 45.5233 263.219 48.9767 263.219 50.96C263.219 52.9433 263.58 54.3433 264.304 55.16C262.67 56.3033 261.189 56.875 259.859 56.875C258.529 56.875 257.549 56.4433 256.919 55.58C256.312 54.6933 256.009 53.48 256.009 51.94C256.009 50.4 256.44 47.25 257.304 42.49C258.167 37.73 258.657 34.9767 258.774 34.23ZM274.83 56.875C272.777 56.875 271.342 56.3733 270.525 55.37C269.709 54.3667 269.3 53.1067 269.3 51.59C269.3 50.05 269.557 47.95 270.07 45.29C270.584 42.63 270.84 40.705 270.84 39.515C270.84 38.325 270.595 37.3917 270.105 36.715C272.275 35.5717 274.107 35 275.6 35C276.557 35 277.245 35.1983 277.665 35.595C278.109 35.9683 278.33 36.5867 278.33 37.45C278.33 38.3133 277.969 40.4367 277.245 43.82C276.545 47.18 276.195 49.2567 276.195 50.05C276.195 50.8433 276.417 51.4733 276.86 51.94C277.304 52.3833 277.887 52.605 278.61 52.605C279.334 52.605 280.104 52.325 280.92 51.765C281.737 51.1817 282.402 50.365 282.915 49.315C283.242 47.425 283.884 44.4383 284.84 40.355L282.74 37.555C285.097 35.8517 287.337 35 289.46 35C290.51 35 291.257 35.1983 291.7 35.595C292.167 35.9683 292.4 36.5517 292.4 37.345C292.4 38.115 291.969 40.3433 291.105 44.03C290.265 47.7167 289.845 50.3417 289.845 51.905C289.845 53.445 290.207 54.53 290.93 55.16C289.624 56.3033 288.247 56.875 286.8 56.875C285.377 56.875 284.35 56.56 283.72 55.93C283.09 55.3 282.775 54.4717 282.775 53.445L282.425 53.27C281.655 54.39 280.582 55.2767 279.205 55.93C277.852 56.56 276.394 56.875 274.83 56.875ZM295.329 47.67C295.329 43.9367 296.612 40.8917 299.179 38.535C301.746 36.1783 304.977 35 308.874 35C310.881 35 312.467 35.385 313.634 36.155C314.801 36.9017 315.384 37.8467 315.384 38.99C315.384 40.1333 314.987 41.0083 314.194 41.615C313.424 42.2217 312.572 42.525 311.639 42.525C310.729 42.525 309.889 42.28 309.119 41.79C308.372 41.3 307.789 40.5883 307.369 39.655C305.899 40.2617 304.732 41.335 303.869 42.875C303.029 44.415 302.609 45.955 302.609 47.495C302.609 49.035 302.912 50.2833 303.519 51.24C304.126 52.1967 304.919 52.675 305.899 52.675C306.879 52.675 307.672 52.3483 308.279 51.695C308.909 51.0417 309.224 50.0733 309.224 48.79C312.631 48.79 314.334 49.595 314.334 51.205C314.334 52.4417 313.599 53.6317 312.129 54.775C310.682 55.9183 308.816 56.595 306.529 56.805C307.322 57.6683 307.719 58.695 307.719 59.885C307.719 61.495 307.054 62.9183 305.724 64.155C304.394 65.415 302.714 66.045 300.684 66.045C298.677 66.045 297.242 65.66 296.379 64.89C295.539 64.1433 295.119 63.2333 295.119 62.16C295.119 61.0867 295.562 60.1417 296.449 59.325C297.336 58.5083 298.456 58.1 299.809 58.1C299.156 58.6833 298.829 59.5 298.829 60.55C298.829 61.2033 298.992 61.705 299.319 62.055C299.669 62.405 300.147 62.58 300.754 62.58C301.361 62.58 301.956 62.2883 302.539 61.705C303.122 61.1217 303.414 60.3167 303.414 59.29C303.414 58.2633 302.947 57.33 302.014 56.49C299.914 55.9533 298.269 54.9033 297.079 53.34C295.912 51.7767 295.329 49.8867 295.329 47.67ZM337.598 31.325C336.665 30.8583 335.697 30.625 334.693 30.625C333.69 30.625 332.29 30.975 330.493 31.675C328.72 32.3517 327.39 32.69 326.503 32.69C325.01 32.69 324.263 31.955 324.263 30.485C324.263 29.4117 324.578 28.1867 325.208 26.81C326.142 27.2767 327.11 27.51 328.113 27.51C329.117 27.51 330.505 27.1717 332.278 26.495C334.075 25.795 335.417 25.445 336.303 25.445C337.797 25.445 338.543 26.18 338.543 27.65C338.543 28.7233 338.228 29.9483 337.598 31.325ZM334.903 37.66C336.21 37.66 337.33 38.185 338.263 39.235C339.22 40.285 339.698 41.8133 339.698 43.82C339.698 45.8033 339.348 47.6467 338.648 49.35C337.948 51.03 337.027 52.4067 335.883 53.48C334.74 54.5533 333.445 55.3933 331.998 56C330.552 56.5833 329.07 56.875 327.553 56.875C324.497 56.875 322.082 56.035 320.308 54.355C318.535 52.675 317.648 50.4467 317.648 47.67C317.648 43.9133 318.85 40.8683 321.253 38.535C323.68 36.1783 326.76 35 330.493 35C331.333 35 332.173 35.0933 333.013 35.28C333.27 36.05 333.41 36.925 333.433 37.905C333.923 37.7417 334.413 37.66 334.903 37.66ZM330.598 42.525C330.598 41.8717 330.75 41.1367 331.053 40.32C331.38 39.5033 331.893 38.85 332.593 38.36C329.513 39.0133 327.39 40.2617 326.223 42.105C325.22 43.6917 324.718 45.325 324.718 47.005C324.718 48.685 325.057 50.0383 325.733 51.065C326.433 52.0683 327.32 52.57 328.393 52.57C330.773 52.57 332.453 51.0183 333.433 47.915C331.543 46.7483 330.598 44.9517 330.598 42.525ZM352.678 56.875C349.481 56.875 347.008 56.0467 345.258 54.39C343.531 52.7333 342.668 50.4933 342.668 47.67C342.668 43.9133 343.951 40.8683 346.518 38.535C349.108 36.1783 352.351 35 356.248 35C358.418 35 360.063 35.49 361.183 36.47C362.303 37.4267 362.863 38.6983 362.863 40.285C362.863 42.455 361.801 44.2633 359.678 45.71C357.578 47.1333 354.323 47.8567 349.913 47.88C349.983 49.3733 350.321 50.5517 350.928 51.415C351.534 52.255 352.293 52.675 353.203 52.675C354.113 52.675 354.894 52.3717 355.548 51.765C356.224 51.1583 356.563 50.1667 356.563 48.79C359.969 48.79 361.673 49.595 361.673 51.205C361.673 52.5817 360.833 53.8767 359.153 55.09C357.473 56.28 355.314 56.875 352.678 56.875ZM355.653 39.095C354.463 39.095 353.366 39.69 352.363 40.88C351.383 42.07 350.671 43.47 350.228 45.08C352.561 44.8933 354.311 44.3683 355.478 43.505C356.668 42.6183 357.263 41.685 357.263 40.705C357.263 40.2383 357.111 39.8533 356.808 39.55C356.528 39.2467 356.143 39.095 355.653 39.095ZM377.186 39.655C376.322 39.9117 375.634 40.285 375.121 40.775C374.607 41.2417 374.152 41.9183 373.756 42.805C377.699 43.3883 380.476 44.2283 382.086 45.325C383.696 46.4217 384.501 47.985 384.501 50.015C384.501 51.2983 384.139 52.4183 383.416 53.375C382.692 54.3083 381.782 55.02 380.686 55.51C378.539 56.42 376.427 56.875 374.351 56.875C368.447 56.875 365.496 55.6033 365.496 53.06C365.496 51.7767 366.067 50.4933 367.211 49.21C367.794 50.0267 368.669 50.7267 369.836 51.31C371.026 51.8933 372.181 52.185 373.301 52.185C375.237 52.185 376.404 51.3333 376.801 49.63C373.254 49.21 370.687 48.4167 369.101 47.25C367.514 46.0833 366.721 44.4383 366.721 42.315C366.721 40.635 367.269 39.2233 368.366 38.08C369.486 36.9367 370.862 36.1433 372.496 35.7C374.152 35.2333 376.007 35 378.061 35C380.137 35 381.841 35.3967 383.171 36.19C384.524 36.96 385.201 37.905 385.201 39.025C385.201 40.145 384.804 41.0083 384.011 41.615C383.241 42.2217 382.389 42.525 381.456 42.525C380.546 42.525 379.706 42.28 378.936 41.79C378.189 41.3 377.606 40.5883 377.186 39.655ZM408.496 42.035L408.391 50.47H409.301C410.608 47.6933 411.809 44.73 412.906 41.58C414.003 38.4067 414.551 35.9917 414.551 34.335C414.551 33.6817 414.423 33.0517 414.166 32.445C415.939 31.2317 417.573 30.625 419.066 30.625C421.399 30.625 422.566 31.9433 422.566 34.58C422.566 35.8867 422.204 37.5433 421.481 39.55C420.781 41.5333 419.731 44.03 418.331 47.04C416.931 50.0267 416.184 51.6367 416.091 51.87L416.581 53.795C414.574 55.8483 412.066 56.875 409.056 56.875C406.046 56.875 404.144 56.3267 403.351 55.23C401.391 56.3267 399.291 56.875 397.051 56.875C394.811 56.875 393.201 56.5483 392.221 55.895C391.241 55.2417 390.751 54.145 390.751 52.605L390.786 46.165C390.786 40.8217 390.133 37.0533 388.826 34.86C388.219 33.8567 387.473 33.0517 386.586 32.445C388.173 31.2317 389.993 30.625 392.046 30.625C393.913 30.625 395.301 31.36 396.211 32.83C397.121 34.2767 397.716 36.015 397.996 38.045C398.229 39.8883 398.346 42.07 398.346 44.59L398.241 50.47H399.151C400.481 47.5767 401.601 44.1467 402.511 40.18C402.278 37.94 401.764 35.6883 400.971 33.425C401.834 32.7483 402.639 32.27 403.386 31.99C404.133 31.6867 405.124 31.535 406.361 31.535C408.904 31.535 410.176 32.7133 410.176 35.07C410.176 36.47 409.616 38.7917 408.496 42.035ZM433.786 56.875C430.59 56.875 428.116 56.0467 426.366 54.39C424.64 52.7333 423.776 50.4933 423.776 47.67C423.776 43.9133 425.06 40.8683 427.626 38.535C430.216 36.1783 433.46 35 437.356 35C439.526 35 441.171 35.49 442.291 36.47C443.411 37.4267 443.971 38.6983 443.971 40.285C443.971 42.455 442.91 44.2633 440.786 45.71C438.686 47.1333 435.431 47.8567 431.021 47.88C431.091 49.3733 431.43 50.5517 432.036 51.415C432.643 52.255 433.401 52.675 434.311 52.675C435.221 52.675 436.003 52.3717 436.656 51.765C437.333 51.1583 437.671 50.1667 437.671 48.79C441.078 48.79 442.781 49.595 442.781 51.205C442.781 52.5817 441.941 53.8767 440.261 55.09C438.581 56.28 436.423 56.875 433.786 56.875ZM436.761 39.095C435.571 39.095 434.475 39.69 433.471 40.88C432.491 42.07 431.78 43.47 431.336 45.08C433.67 44.8933 435.42 44.3683 436.586 43.505C437.776 42.6183 438.371 41.685 438.371 40.705C438.371 40.2383 438.22 39.8533 437.916 39.55C437.636 39.2467 437.251 39.095 436.761 39.095ZM447.514 49.35C447.514 47.39 448.272 42.35 449.789 34.23L447.829 31.43C449.276 30.5667 450.489 29.925 451.469 29.505C452.472 29.085 453.464 28.875 454.444 28.875C455.447 28.875 456.182 29.0733 456.649 29.47C457.116 29.8667 457.349 30.4967 457.349 31.36C457.349 32.8533 456.894 35.7817 455.984 40.145L456.334 40.32C458.014 36.9833 460.464 35.315 463.684 35.315C465.504 35.315 466.927 36.0967 467.954 37.66C468.981 39.2 469.494 41.0783 469.494 43.295C469.494 45.4883 469.051 47.4717 468.164 49.245C467.301 50.995 466.169 52.4183 464.769 53.515C463.392 54.5883 461.887 55.4167 460.254 56C458.621 56.5833 456.999 56.875 455.389 56.875C452.752 56.875 450.781 56.2683 449.474 55.055C448.167 53.8417 447.514 51.94 447.514 49.35ZM454.444 52.815C457.034 52.815 459.134 51.9283 460.744 50.155C462.377 48.3817 463.194 46.3983 463.194 44.205C463.194 43.2017 462.914 42.2917 462.354 41.475C461.817 40.6583 461.106 40.25 460.219 40.25C459.332 40.25 458.504 40.6117 457.734 41.335C456.987 42.0583 456.404 42.9217 455.984 43.925C455.587 44.9283 455.261 46.06 455.004 47.32C454.631 49.3033 454.444 51.135 454.444 52.815Z" fill="white"/>
</svg>
